<?xml version="1.0" encoding="UTF-8" standalone="no"?>
<!-- Created with Inkscape (http://www.inkscape.org/) -->

<svg
   xmlns:dc="http://purl.org/dc/elements/1.1/"
   xmlns:cc="http://creativecommons.org/ns#"
   xmlns:rdf="http://www.w3.org/1999/02/22-rdf-syntax-ns#"
   xmlns:svg="http://www.w3.org/2000/svg"
   xmlns="http://www.w3.org/2000/svg"
   xmlns:sodipodi="http://sodipodi.sourceforge.net/DTD/sodipodi-0.dtd"
   xmlns:inkscape="http://www.inkscape.org/namespaces/inkscape"
   width="95.734093mm"
   height="72.296097mm"
   viewBox="0 0 339.21529 256.16727"
   id="svg4983"
   version="1.1"
   inkscape:version="0.91 r13725"
   sodipodi:docname="cyberscooty-cow.svg">
  <defs
     id="defs4985">
    <filter
       inkscape:collect="always"
       style="color-interpolation-filters:sRGB"
       id="filter5396"
       x="-0.19273847"
       width="1.3854769"
       y="-0.19126716"
       height="1.3825343">
      <feGaussianBlur
         inkscape:collect="always"
         stdDeviation="0.48591959"
         id="feGaussianBlur5398" />
    </filter>
  </defs>
  <sodipodi:namedview
     id="base"
     pagecolor="#ffffff"
     bordercolor="#666666"
     borderopacity="1.0"
     inkscape:pageopacity="0.0"
     inkscape:pageshadow="2"
     inkscape:zoom="0.35"
     inkscape:cx="418.89339"
     inkscape:cy="-71.91636"
     inkscape:document-units="px"
     inkscape:current-layer="layer1"
     showgrid="false"
     fit-margin-top="0"
     fit-margin-left="0"
     fit-margin-right="0"
     fit-margin-bottom="0"
     inkscape:window-width="1920"
     inkscape:window-height="1017"
     inkscape:window-x="-8"
     inkscape:window-y="-8"
     inkscape:window-maximized="1" />
  <metadata
     id="metadata4988">
    <rdf:RDF>
      <cc:Work
         rdf:about="">
        <dc:format>image/svg+xml</dc:format>
        <dc:type
           rdf:resource="http://purl.org/dc/dcmitype/StillImage" />
        <dc:title></dc:title>
      </cc:Work>
    </rdf:RDF>
  </metadata>
  <g
     inkscape:label="Calque 1"
     inkscape:groupmode="layer"
     id="layer1"
     transform="translate(-73.249471,-164.27857)">
    <g
       id="g8129"
       transform="translate(-1329.0386,-23.642736)">
      <path
         style="fill:#b3b3b3;fill-opacity:1;fill-rule:evenodd;stroke:#000000;stroke-width:2.52736616;stroke-linecap:round;stroke-linejoin:round;stroke-miterlimit:4;stroke-dasharray:none;stroke-opacity:1"
         d="m 1669.0658,415.7847 c 5.7588,0.9414 11.0486,5.8684 15.9564,14.0416 0.6847,4.061 1.4835,8.1925 -6.5422,6.8613 l -7.0207,-2.8722 3.0317,7.6591 c -21.8446,5.6433 -33.2938,-7.1809 -28.2428,-23.2962 z"
         id="path7889"
         inkscape:connector-curvature="0"
         sodipodi:nodetypes="ccccccc" />
      <path
         sodipodi:nodetypes="csccc"
         inkscape:connector-curvature="0"
         id="path7891"
         d="m 1451.899,263.08197 c -10.4102,21.07646 -15.7007,31.22123 -29.7265,36.94103 -1.0508,0.4285 0.5905,1.4694 -0.4311,1.9925 6.2965,2.1354 12.4738,4.4921 24.5729,-4.1486 z"
         style="fill:#ffffff;fill-opacity:1;fill-rule:evenodd;stroke:#000000;stroke-width:2.52736616;stroke-linecap:round;stroke-linejoin:round;stroke-miterlimit:4;stroke-dasharray:none;stroke-opacity:1" />
      <path
         style="fill:#b3b3b3;fill-opacity:1;fill-rule:evenodd;stroke:#000000;stroke-width:2.52736616;stroke-linecap:round;stroke-linejoin:round;stroke-miterlimit:4;stroke-dasharray:none;stroke-opacity:1"
         d="m 1554.8179,410.3596 c 5.7587,0.9414 11.0485,5.8684 15.9564,14.0416 0.6846,4.061 1.4834,8.1925 -6.5422,6.8613 l -7.0208,-2.8722 3.0317,7.6591 c -20.3104,4.8763 -36.319,-8.4607 -35.4232,-22.4984 z"
         id="path7893"
         inkscape:connector-curvature="0"
         sodipodi:nodetypes="ccccccc" />
      <path
         sodipodi:nodetypes="ccccc"
         inkscape:connector-curvature="0"
         id="path7895"
         d="m 1558.6473,384.989 -0.6382,21.7007 c -2.199,19.0728 -33.6584,11.9331 -38.7741,5.2656 l -2.7125,-38.9337 z"
         style="fill:#ffffff;fill-opacity:1;fill-rule:evenodd;stroke:#000000;stroke-width:2.52736616;stroke-linecap:round;stroke-linejoin:round;stroke-miterlimit:4;stroke-dasharray:none;stroke-opacity:1" />
      <path
         sodipodi:nodetypes="ccssccssccccc"
         inkscape:connector-curvature="0"
         id="path7897"
         d="m 1576.9973,371.9047 c -0.9857,5.3582 -2.3538,10.6102 -10.8504,13.882 l 0.1595,6.8613 c 0.068,2.9605 -7.2184,5.5275 -10.0525,1.2765 l -3.5104,-5.2657 c -5.0761,0.034 -8.6448,0.7646 -11.1695,2.0744 0.1529,2.1208 -0.052,3.8845 -0.3191,5.5848 -0.688,4.3707 -8.6253,2.4176 -10.6908,-1.5956 -1.0712,-2.0814 -0.1049,-4.6806 -0.4787,-7.0209 -5.3551,-0.8627 -6.4871,-2.4293 -9.5739,-3.67 l 6.3826,-31.5936 53.6136,8.6164 z"
         style="fill:#fac9ba;fill-opacity:1;fill-rule:evenodd;stroke:#000000;stroke-width:2.52736616;stroke-linecap:round;stroke-linejoin:round;stroke-miterlimit:4;stroke-dasharray:none;stroke-opacity:1" />
      <path
         sodipodi:nodetypes="ccccccc"
         inkscape:connector-curvature="0"
         id="path7899"
         d="m 1519.2351,411.4765 c 5.7587,0.9415 11.0485,5.8684 15.9564,14.0417 0.6846,4.061 1.4834,8.1925 -6.5422,6.8613 l -7.0208,-2.8722 3.5104,6.8613 c -42.3302,9.0249 -43.659,-6.8651 -42.7632,-20.9029 z"
         style="fill:#b3b3b3;fill-opacity:1;fill-rule:evenodd;stroke:#000000;stroke-width:2.52736616;stroke-linecap:round;stroke-linejoin:round;stroke-miterlimit:4;stroke-dasharray:none;stroke-opacity:1" />
      <path
         sodipodi:nodetypes="cssscccc"
         inkscape:connector-curvature="0"
         id="path7901"
         d="m 1693.6385,356.9056 c -5.2047,14.5057 -13.4169,26.7008 -12.7651,45.4758 0.1583,4.556 -0.4913,9.0369 -6.8611,13.2438 -13.1742,8.7008 -22.6782,8.8468 -29.3599,2.2339 -3.6312,-3.5938 -3.9355,-9.982 -5.1061,-15.6373 l 14.2013,-52.6561 38.4549,-0.7978 z"
         style="fill:#ffffff;fill-opacity:1;fill-rule:evenodd;stroke:#000000;stroke-width:2.52736616;stroke-linecap:round;stroke-linejoin:round;stroke-miterlimit:4;stroke-dasharray:none;stroke-opacity:1" />
      <path
         style="fill:#000000;fill-opacity:1;fill-rule:evenodd;stroke:none;stroke-width:2;stroke-linecap:round;stroke-linejoin:round;stroke-miterlimit:4;stroke-dasharray:none;stroke-opacity:1"
         d="m 1693.6385,356.9056 c -4.3197,12.0394 -10.7112,22.487 -12.3871,36.4261 -3.3596,12.3498 -10.14,-8.691 -16.9398,-7.7828 -10.3748,1.3858 -11.4462,0.6955 -13.5372,-11.2655 l 2.9732,-24.7177 38.4549,-0.7978 z"
         id="path7903"
         inkscape:connector-curvature="0"
         sodipodi:nodetypes="ccscccc" />
      <path
         sodipodi:nodetypes="ccccccc"
         inkscape:connector-curvature="0"
         id="path7905"
         d="m 1628.2174,414.9869 c 5.7587,0.9415 11.0485,5.8684 15.9564,14.0417 0.6847,4.061 1.4835,8.1924 -6.5422,6.8613 l -7.0208,-2.8723 3.0317,7.6591 c -21.8445,5.6434 -33.2937,-7.1809 -28.2428,-23.2961 z"
         style="fill:#b3b3b3;fill-opacity:1;fill-rule:evenodd;stroke:#000000;stroke-width:2.52736616;stroke-linecap:round;stroke-linejoin:round;stroke-miterlimit:4;stroke-dasharray:none;stroke-opacity:1" />
      <path
         sodipodi:nodetypes="csssscssssccc"
         inkscape:connector-curvature="0"
         id="path7907"
         d="m 1588.1881,240.17354 c -20.0444,5.02491 -42.1057,-1.14199 -65.4407,-7.67232 -61.205,-17.12822 -79.7034,32.97227 -79.8829,69.95378 -0.2164,44.5962 32.7359,61.757 36.1052,106.5105 2.1086,28.0071 45.9766,12.9638 44.6803,0.4512 -2.6175,-25.2662 3.4619,-34.9178 12.6368,-44.6801 14.2754,8.7892 29.6622,7.812 45.1316,6.7698 8.1395,-0.5485 17.8926,-6.8607 18.9553,16.6986 0.4352,9.6494 1.3673,17.1255 2.2565,24.3711 1.6744,13.6427 19.8789,12.5857 33.3974,0.6768 11.6191,-10.2356 14.6414,-24.597 17.6012,-38.5873 2.68,-4.3628 13.1366,-9.3812 21.6632,-13.0883 z"
         style="fill:#ffffff;fill-rule:evenodd;stroke:#000000;stroke-width:2.52736616;stroke-linecap:round;stroke-linejoin:round;stroke-miterlimit:4;stroke-dasharray:none;stroke-opacity:1" />
      <path
         sodipodi:nodetypes="ssssss"
         inkscape:connector-curvature="0"
         id="path7909"
         d="m 1586.8342,302.455 c -12.638,-7.7572 -24.784,6.8012 -24.4481,21.6256 0.1654,7.3033 -4.6356,22.0789 1.3564,26.7518 11.3274,8.8339 29.5179,8.9108 39.2964,0.1504 5.2999,-4.7481 0.6456,-12.3035 -0.8518,-19.1475 -2.7331,-12.4918 -4.6028,-22.7817 -15.3529,-29.3803 z"
         style="fill:#000000;fill-rule:evenodd;stroke:none;stroke-width:1px;stroke-linecap:butt;stroke-linejoin:miter;stroke-opacity:1" />
      <path
         sodipodi:nodetypes="ccccccc"
         inkscape:connector-curvature="0"
         id="path7911"
         d="m 1403.5511,301.2178 c 4.5093,0.1175 9.1099,0.1448 11.9673,1.9147 -4.9931,2.7315 -8.0757,5.7812 -10.5313,8.9356 3.2227,-1.4735 6.0183,-3.1607 10.8504,-3.8296 -2.1114,3.4758 -3.8843,6.7824 -4.3083,9.4144 6.3122,-3.0108 14.7184,-8.6925 12.6056,-16.5947 -5.0973,-7.8589 -14.0323,-1.8368 -20.5837,0.1596 z"
         style="fill:#b3b3b3;fill-opacity:1;fill-rule:evenodd;stroke:#000000;stroke-width:2.52736616;stroke-linecap:round;stroke-linejoin:round;stroke-miterlimit:4;stroke-dasharray:none;stroke-opacity:1" />
      <path
         sodipodi:nodetypes="ccccsccsscc"
         inkscape:connector-curvature="0"
         id="path7913"
         d="m 1592.0243,236.78864 c -20.5371,27.22542 -17.717,53.63136 -4.0619,79.65716 l 120.5013,-54.60907 c -11.6705,-14.30337 -23.349,-28.58059 -36.7823,-37.00797 24.0969,3.25689 36.0554,-15.82902 32.5459,-27.13532 -2.6471,-8.52821 -25.5983,2.27135 -37.2847,12.46763 -27.4383,-18.27855 -66.5395,-1.67716 -74.2414,6.31841 -12.7978,-9.12227 -25.4326,-17.36048 -36.5565,-15.11908 -24.8267,5.00242 -15.0457,17.04115 -6.7698,25.04797 13.8489,13.39858 28.3573,10.61683 40.3928,6.99549 z"
         style="fill:#ffffff;fill-opacity:1;fill-rule:evenodd;stroke:#000000;stroke-width:2.52736616;stroke-linecap:round;stroke-linejoin:round;stroke-miterlimit:4;stroke-dasharray:none;stroke-opacity:1" />
      <path
         sodipodi:nodetypes="scs"
         inkscape:connector-curvature="0"
         id="path7915"
         d="m 1619.5352,267.22369 c 30.757,0.85905 33.2331,-44.34668 12.555,-45.75405 -25.332,-3.55613 -24.769,45.41285 -12.555,45.75405 z"
         style="fill:#000000;fill-rule:evenodd;stroke:none;stroke-width:1px;stroke-linecap:butt;stroke-linejoin:miter;stroke-opacity:1" />
      <path
         sodipodi:nodetypes="ccc"
         inkscape:connector-curvature="0"
         id="path7917"
         d="m 1589.9934,232.72678 c -8.9934,-9.31081 -20.8517,-12.23093 -33.7358,-12.8624 2.9772,8.11525 14.5123,12.2686 33.7358,12.8624 z"
         style="fill:#fac9ba;fill-opacity:1;fill-rule:evenodd;stroke:#000000;stroke-width:2.52736616;stroke-linecap:round;stroke-linejoin:round;stroke-miterlimit:4;stroke-dasharray:none;stroke-opacity:1" />
      <path
         sodipodi:nodetypes="ccc"
         inkscape:connector-curvature="0"
         id="path7919"
         d="m 1672.02,223.92624 c 5.5752,-13.12335 16.7915,-16.10008 29.487,-17.35631 -6.772,11.67365 -15.507,18.89737 -29.487,17.35631 z"
         style="fill:#fac9ba;fill-opacity:1;fill-rule:evenodd;stroke:#000000;stroke-width:2.52736616;stroke-linecap:round;stroke-linejoin:round;stroke-miterlimit:4;stroke-dasharray:none;stroke-opacity:1" />
      <path
         sodipodi:nodetypes="ccssc"
         inkscape:connector-curvature="0"
         id="path7921"
         d="m 1599.0721,214.51458 c 7.4704,4.5092 14.3123,4.14754 20.0834,-4.51312 -4.9308,-6.74541 -1.678,-11.80633 0.2257,-17.8269 0.83,-2.62492 -1.6804,-2.79287 -4.0618,-1.12834 -14.0547,9.82337 -15.5083,17.02396 -16.2473,23.46836 z"
         style="fill:#fdfbda;fill-opacity:1;fill-rule:evenodd;stroke:#000000;stroke-width:2.52736616;stroke-linecap:round;stroke-linejoin:round;stroke-miterlimit:4;stroke-dasharray:none;stroke-opacity:1" />
      <path
         style="fill:#fdfbda;fill-opacity:1;fill-rule:evenodd;stroke:#000000;stroke-width:2.52736616;stroke-linecap:round;stroke-linejoin:round;stroke-miterlimit:4;stroke-dasharray:none;stroke-opacity:1"
         d="m 1664.9222,210.27379 c -5.9034,2.59977 -11.0955,1.74957 -13.7616,-2.25252 2.3777,-5.17756 2.9916,-13.1279 3.346,-17.14312 0.1764,-1.99902 1.3022,-2.13942 2.9607,-0.82241 9.0167,7.16041 6.5425,15.52069 7.4549,20.21805 z"
         id="path7923"
         inkscape:connector-curvature="0"
         sodipodi:nodetypes="ccssc" />
      <path
         sodipodi:nodetypes="ssssss"
         inkscape:connector-curvature="0"
         id="path7925"
         d="m 1664.2788,257.33764 c -59.141,7.59941 -77.9337,29.20006 -80.4204,55.52826 -2.4835,26.295 33.1565,52.1894 84.8882,48.8267 39.2153,-2.5491 70.4131,-25.2423 71.4847,-59.6771 0.3657,-11.7497 -11.8077,-22.01977 -11.8077,-22.01977 -12.3792,-21.57182 -47.609,-24.78284 -64.1448,-22.65809 z"
         style="fill:#fac9ba;fill-opacity:1;fill-rule:evenodd;stroke:#000000;stroke-width:2.52736616;stroke-linecap:round;stroke-linejoin:round;stroke-miterlimit:4;stroke-dasharray:none;stroke-opacity:1" />
      <path
         sodipodi:nodetypes="cc"
         inkscape:connector-curvature="0"
         id="path7927"
         d="m 1625.6643,300.42 c -21.1529,-10.2257 -2.2215,-41.2092 15.6373,-10.8503"
         style="fill:none;fill-rule:evenodd;stroke:#000000;stroke-width:2.52736616;stroke-linecap:round;stroke-linejoin:round;stroke-miterlimit:4;stroke-dasharray:none;stroke-opacity:1" />
      <path
         sodipodi:nodetypes="cc"
         inkscape:connector-curvature="0"
         id="path7929"
         d="m 1637.7912,293.08 c -12.7579,-20.54467 -20.0514,3.268 -6.7017,4.4678"
         style="fill:#dc8166;fill-opacity:1;fill-rule:evenodd;stroke:#000000;stroke-width:2.52736616;stroke-linecap:round;stroke-linejoin:round;stroke-miterlimit:4;stroke-dasharray:none;stroke-opacity:1" />
      <path
         style="fill:#fac9ba;fill-opacity:1;fill-rule:evenodd;stroke:#000000;stroke-width:2.3406589;stroke-linecap:round;stroke-linejoin:round;stroke-miterlimit:4;stroke-dasharray:none;stroke-opacity:1"
         d="m 1721.8086,299.0105 c 21.0001,-16.80471 -0.9506,-42.08292 -13.1785,-11.2478"
         id="path7931"
         inkscape:connector-curvature="0"
         sodipodi:nodetypes="cc" />
      <path
         style="fill:#dc8166;fill-opacity:1;fill-rule:evenodd;stroke:#000000;stroke-width:2.3406589;stroke-linecap:round;stroke-linejoin:round;stroke-miterlimit:4;stroke-dasharray:none;stroke-opacity:1"
         d="m 1712.3534,290.4599 c 7.3898,-12.94478 15.2768,2.4427 8.1358,4.009"
         id="path7933"
         inkscape:connector-curvature="0"
         sodipodi:nodetypes="cc" />
      <path
         sodipodi:nodetypes="cc"
         inkscape:connector-curvature="0"
         id="path7935"
         d="m 1617.7493,319.8307 c 8.1287,-0.1264 15.9764,-0.6891 21.4375,-4.9645"
         style="fill:none;fill-rule:evenodd;stroke:#000000;stroke-width:2.52736616;stroke-linecap:round;stroke-linejoin:round;stroke-miterlimit:4;stroke-dasharray:none;stroke-opacity:1" />
      <path
         sodipodi:nodetypes="cc"
         inkscape:connector-curvature="0"
         id="path7937"
         d="m 1700.5657,313.2866 c 6.2325,3.0196 12.7982,3.3728 19.6322,1.5796"
         style="fill:none;fill-rule:evenodd;stroke:#000000;stroke-width:2.52736616;stroke-linecap:round;stroke-linejoin:round;stroke-miterlimit:4;stroke-dasharray:none;stroke-opacity:1" />
      <path
         sodipodi:nodetypes="sssss"
         inkscape:connector-curvature="0"
         id="path7939"
         d="m 1657.2179,230.74672 c -6.1175,-5.81307 -14.7221,-2.53419 -13.7818,4.03469 0.6874,4.80187 1.3013,12.37714 6.8484,14.20935 6.659,2.19932 12.8297,-1.32484 12.5823,-7.26491 -0.2165,-5.20524 -1.5815,-7.11416 -5.6489,-10.97913 z"
         style="fill:#fafffe;fill-opacity:1;fill-rule:evenodd;stroke:#000000;stroke-width:1.26368308;stroke-linecap:round;stroke-linejoin:round;stroke-miterlimit:4;stroke-dasharray:none;stroke-opacity:1" />
      <path
         style="fill:#fafffe;fill-opacity:1;fill-rule:evenodd;stroke:#000000;stroke-width:1.26368308;stroke-linecap:round;stroke-linejoin:round;stroke-miterlimit:4;stroke-dasharray:none;stroke-opacity:1"
         d="m 1644.3922,237.55746 c -1.097,-10.6368 -11.474,-12.07474 -17.0843,-7.00901 -4.7979,4.33228 -9.177,13.8027 -5.1837,20.2236 4.7662,7.66386 13.8537,9.03483 18.6175,2.70138 4.1743,-5.54985 4.4026,-8.6235 3.6505,-15.91597 z"
         id="path7941"
         inkscape:connector-curvature="0"
         sodipodi:nodetypes="sssss" />
      <path
         transform="scale(-1,1)"
         d="m -1635.3419,247.82759 a 4.7456222,4.7821269 0 0 1 -3.6999,-5.63074 4.7456222,4.7821269 0 0 1 5.5771,-3.74454 4.7456222,4.7821269 0 0 1 3.732,5.6092 4.7456222,4.7821269 0 0 1 -5.5556,3.77681"
         sodipodi:open="true"
         sodipodi:end="1.7612641"
         sodipodi:start="1.7727658"
         sodipodi:ry="4.7821269"
         sodipodi:rx="4.7456222"
         sodipodi:cy="243.14267"
         sodipodi:cx="-1634.3899"
         sodipodi:type="arc"
         id="path7943"
         style="opacity:1;fill:#45bbfa;fill-opacity:1;stroke:#000000;stroke-width:0.81770718;stroke-linecap:round;stroke-linejoin:round;stroke-miterlimit:4;stroke-dasharray:none;stroke-dashoffset:0;stroke-opacity:1" />
      <path
         transform="scale(-1,1)"
         style="opacity:1;fill:#000000;fill-opacity:1;stroke:none;stroke-width:1.01094723;stroke-linecap:round;stroke-linejoin:round;stroke-miterlimit:4;stroke-dasharray:none;stroke-dashoffset:0;stroke-opacity:1"
         id="path7945"
         sodipodi:type="arc"
         sodipodi:cx="-1634.1708"
         sodipodi:cy="242.85068"
         sodipodi:rx="1.8890002"
         sodipodi:ry="1.903531"
         sodipodi:start="1.7727658"
         sodipodi:end="1.7612641"
         sodipodi:open="true"
         d="m -1634.5497,244.71552 a 1.8890002,1.903531 0 0 1 -1.4728,-2.24133 1.8890002,1.903531 0 0 1 2.22,-1.49052 1.8890002,1.903531 0 0 1 1.4855,2.23275 1.8890002,1.903531 0 0 1 -2.2114,1.50336" />
      <path
         transform="matrix(-0.4088536,0,0,0.4088536,2419.7811,-166.68933)"
         d="m 1919.1918,1000.2903 a 3.0253613,3.0486336 0 0 1 -2.3587,-3.58961 3.0253613,3.0486336 0 0 1 3.5554,-2.38717 3.0253613,3.0486336 0 0 1 2.3792,3.5759 3.0253613,3.0486336 0 0 1 -3.5417,2.40778"
         sodipodi:open="true"
         sodipodi:end="1.7612641"
         sodipodi:start="1.7727658"
         sodipodi:ry="3.0486336"
         sodipodi:rx="3.0253613"
         sodipodi:cy="997.30365"
         sodipodi:cx="1919.7987"
         sodipodi:type="arc"
         id="path7947"
         style="opacity:1;fill:#ffffff;fill-opacity:1;stroke:none;stroke-width:1.01094723;stroke-linecap:round;stroke-linejoin:round;stroke-miterlimit:4;stroke-dasharray:none;stroke-dashoffset:0;stroke-opacity:1;filter:url(#filter5396)" />
      <path
         transform="scale(-1,1)"
         style="opacity:1;fill:#45bbfa;fill-opacity:1;stroke:#000000;stroke-width:0.67808408;stroke-linecap:round;stroke-linejoin:round;stroke-miterlimit:4;stroke-dasharray:none;stroke-dashoffset:0;stroke-opacity:1"
         id="path7949"
         sodipodi:type="arc"
         sodipodi:cx="-1651.2549"
         sodipodi:cy="240.73331"
         sodipodi:rx="3.9353094"
         sodipodi:ry="3.9655812"
         sodipodi:start="1.7727658"
         sodipodi:end="1.7612641"
         sodipodi:open="true"
         d="m -1652.0443,244.61828 a 3.9353094,3.9655812 0 0 1 -3.0682,-4.66929 3.9353094,3.9655812 0 0 1 4.6249,-3.10517 3.9353094,3.9655812 0 0 1 3.0947,4.65144 3.9353094,3.9655812 0 0 1 -4.607,3.13191" />
      <path
         transform="scale(-1,1)"
         d="m -1651.3876,242.03754 a 1.5664543,1.5785041 0 0 1 -1.2213,-1.85862 1.5664543,1.5785041 0 0 1 1.8409,-1.23601 1.5664543,1.5785041 0 0 1 1.2319,1.8515 1.5664543,1.5785041 0 0 1 -1.8338,1.24667"
         sodipodi:open="true"
         sodipodi:end="1.7612641"
         sodipodi:start="1.7727658"
         sodipodi:ry="1.5785041"
         sodipodi:rx="1.5664543"
         sodipodi:cy="240.49112"
         sodipodi:cx="-1651.0734"
         sodipodi:type="arc"
         id="path7951"
         style="opacity:1;fill:#000000;fill-opacity:1;stroke:none;stroke-width:1.01094723;stroke-linecap:round;stroke-linejoin:round;stroke-miterlimit:4;stroke-dasharray:none;stroke-dashoffset:0;stroke-opacity:1" />
      <path
         style="opacity:1;fill:#ffffff;fill-opacity:1;stroke:none;stroke-width:1.01094723;stroke-linecap:round;stroke-linejoin:round;stroke-miterlimit:4;stroke-dasharray:none;stroke-dashoffset:0;stroke-opacity:1;filter:url(#filter5396)"
         id="path7953"
         sodipodi:type="arc"
         sodipodi:cx="1388.125"
         sodipodi:cy="1043.7908"
         sodipodi:rx="3.0253613"
         sodipodi:ry="3.0486336"
         sodipodi:start="1.7727658"
         sodipodi:end="1.7612641"
         sodipodi:open="true"
         d="m 1387.5181,1046.7774 a 3.0253613,3.0486336 0 0 1 -2.3587,-3.5896 3.0253613,3.0486336 0 0 1 3.5554,-2.3872 3.0253613,3.0486336 0 0 1 2.3792,3.5759 3.0253613,3.0486336 0 0 1 -3.5418,2.4078"
         transform="matrix(-0.33904206,0,0,0.33904206,2122.2814,-114.8811)" />
      <path
         sodipodi:nodetypes="cc"
         inkscape:connector-curvature="0"
         id="path7955"
         d="m 1536.2868,364.7366 c 5.1044,-4.4166 7.8617,-11.7673 9.5738,-20.4242"
         style="fill:none;fill-rule:evenodd;stroke:#000000;stroke-width:2.52736616;stroke-linecap:round;stroke-linejoin:round;stroke-miterlimit:4;stroke-dasharray:none;stroke-opacity:1" />
      <path
         style="fill:#000000;fill-rule:evenodd;stroke:none;stroke-width:2;stroke-linecap:round;stroke-linejoin:round;stroke-miterlimit:4;stroke-dasharray:none;stroke-opacity:1"
         d="m 1575.5317,241.94952 c -16.5447,0.68896 -34.2633,-4.26518 -52.7843,-9.4483 -5.0324,-1.40838 -9.7761,-2.36208 -14.2446,-2.9061 -32.8649,13.79348 -24.6937,28.6755 -16.5266,33.30816 29.6801,16.8358 -21.9123,41.52302 26.1975,50.39742 21.4392,3.9547 30.8245,-11.3763 32.5412,-24.9329 0.5414,-4.27584 -1.0796,-16.07763 9.31,-17.03739 11.9399,-1.10307 15.207,-9.97539 15.5068,-29.38089 z"
         id="path7957"
         inkscape:connector-curvature="0"
         sodipodi:nodetypes="cscssssc" />
      <path
         style="fill:#000000;fill-rule:evenodd;stroke:none;stroke-width:2;stroke-linecap:round;stroke-linejoin:round;stroke-miterlimit:4;stroke-dasharray:none;stroke-opacity:1"
         d="m 1494.9915,336.3037 c -21.6253,-27.751 -40.6318,-8.9047 -40.8255,9.3525 7.557,14.7439 16.9747,28.217 21.8379,46.0451 10.7619,9.2805 23.893,2.5246 23.9644,-6.5376 0.063,-7.9703 -7.8123,-19.4317 -0.2351,-21.6548 16.0245,-4.7017 16.0592,-12.5671 10.1744,-18.2121 -4.0787,-3.9125 -10.5937,-3.4463 -14.9161,-8.9931 z"
         id="path7959"
         inkscape:connector-curvature="0"
         sodipodi:nodetypes="sccssss" />
      <path
         style="fill:#000000;fill-opacity:1;fill-rule:evenodd;stroke:none;stroke-width:2;stroke-linecap:round;stroke-linejoin:round;stroke-miterlimit:4;stroke-dasharray:none;stroke-opacity:1"
         d="m 1571.3726,203.57981 c -5.2871,-2.19085 -10.3998,-3.19219 -15.2279,-2.21941 -13.3278,2.68545 -16.682,7.39874 -15.6497,12.42744 12.1521,7.20489 39.2098,5.86829 30.8776,-10.20803 z"
         id="path7961"
         inkscape:connector-curvature="0"
         sodipodi:nodetypes="cccc" />
      <path
         style="fill:#000000;fill-rule:evenodd;stroke:#000000;stroke-width:2.11177373;stroke-linecap:round;stroke-linejoin:round;stroke-miterlimit:4;stroke-dasharray:none;stroke-opacity:1"
         d="m 1631.5986,319.63611 c 6.059,8.58286 53.8492,12.56416 78.1307,-2.26197 -6.217,41.89746 -87.4445,40.58334 -78.1307,2.26197 z"
         id="path7967"
         inkscape:connector-curvature="0"
         sodipodi:nodetypes="ccc" />
      <path
         style="fill:#d23932;fill-opacity:1;fill-rule:evenodd;stroke:none;stroke-width:1px;stroke-linecap:butt;stroke-linejoin:miter;stroke-opacity:1"
         d="m 1690.0061,340.62779 c -1.9126,-9.2874 -46.6018,-3.61709 -47.2739,2.07474 -1.0416,8.81612 49.0042,6.32445 47.2739,-2.07474 z"
         id="path7969"
         inkscape:connector-curvature="0"
         sodipodi:nodetypes="sss" />
      <path
         style="fill:#ffffff;fill-rule:evenodd;stroke:#000000;stroke-width:0.96624386;stroke-linecap:round;stroke-linejoin:round;stroke-miterlimit:4;stroke-dasharray:none;stroke-opacity:1"
         d="m 1656.5722,327.62122 -0.2567,6.43424 c -0.031,0.79928 -0.018,1.90567 2.6957,1.75165 l 6.5464,-0.37155 c 2.5905,-0.14703 3.3199,-1.29098 3.3377,-2.16455 l 0.1269,-6.28592 z"
         id="path7971"
         inkscape:connector-curvature="0"
         sodipodi:nodetypes="csssscc" />
      <path
         sodipodi:nodetypes="csssscc"
         inkscape:connector-curvature="0"
         id="path7973"
         d="m 1670.7916,326.8049 -0.2445,6.44771 c -0.03,0.80115 -0.018,1.91024 2.5668,1.76353 l 6.2333,-0.35379 c 2.4664,-0.13998 3.161,-1.28455 3.1779,-2.16003 l 0.1232,-6.29955 z"
         style="fill:#ffffff;fill-rule:evenodd;stroke:#000000;stroke-width:0.96624386;stroke-linecap:round;stroke-linejoin:round;stroke-miterlimit:4;stroke-dasharray:none;stroke-opacity:1" />
      <path
         sodipodi:nodetypes="ccc"
         inkscape:connector-curvature="0"
         id="path7989"
         d="m 1631.5986,319.63611 c 6.059,8.58286 53.8492,12.56416 78.1307,-2.26197 -6.217,41.89746 -87.4445,40.58334 -78.1307,2.26197 z"
         style="fill:none;fill-rule:evenodd;stroke:#000000;stroke-width:2.11177373;stroke-linecap:round;stroke-linejoin:round;stroke-miterlimit:4;stroke-dasharray:none;stroke-opacity:1" />
    </g>
  </g>
</svg>
