<?xml version="1.0" encoding="utf-8"?>
<!DOCTYPE svg PUBLIC "-//W3C//DTD SVG 1.1//EN" "http://www.w3.org/Graphics/SVG/1.1/DTD/svg11.dtd">
<svg version="1.1"
	 id="svg3015" xmlns:dc="http://purl.org/dc/elements/1.1/" xmlns:cc="http://creativecommons.org/ns#" xmlns:rdf="http://www.w3.org/1999/02/22-rdf-syntax-ns#"
	 xmlns="http://www.w3.org/2000/svg" xmlns:xlink="http://www.w3.org/1999/xlink" x="0px" y="0px"
	 viewBox="-263.96 -260.6234 1560.0115 1541.0735" enable-background="new -263.96 -260.6234 1560.0115 1541.0735"
	 xml:space="preserve">
<g id="layer1" transform="translate(168.2 137.62)">
	<g id="g3857" transform="matrix(1.2934 0 0 1.2934 -253.6 -258.83)">
		<path id="path3081" fill="#A05A2C" stroke="#000000" stroke-width="1.8415" d="M718.6753,907.562
			c0,0,60.1277-8.1752,100.2609-67.9741c36.4664-54.335,2.9312-101.08,17.5327-158.7091
			c19.9326-78.6592,150.0762,15.2123,150.0762,15.2123s-31.9127-57.1208-84.0511-91.0592
			c-24.1563-15.7236-69.5578-15.2595-90.769,9.8325c-29.4937,34.8887-30.5912,80.7203-24.4509,124.1403
			c5.2287,36.9688-20.0725,77.0505-31.5076,90.8839c-49.3703,59.7196-63.6634,28.3093-63.6634,28.3093L718.6753,907.562z"/>
		<g id="g3826" transform="matrix(0 1 -1 0 1433.8 -194.28)">
			<path id="path3083" fill="#28170B" stroke="#000000" stroke-width="1.4732" d="M939.5234,386.7899
				c-5.4263,21.7844-30.7651,24.4995-44.2862,27.8717c2.6351-5.2733,12.2234-16.6871,9.3515-33.4007
				c-8.3699,24.2387-26.0463,30.1169-61.922,48.0901c-34.8253,17.4458-39.5116,63.1301-28.1221,91.6059
				c0,0,21.0302,35.2966,72.6971,9.5276c37.455-18.6803,19.8544-48.1122,53.8105-59.204
				c-7.8735-4.1203-9.5059-2.9718-15.9298-1.4489c11.1165-33.7631,26.0464-57.1415,14.4012-83.0406L939.5234,386.7899z"/>
			<path id="path3091" fill="#502D16" stroke="#000000" stroke-width="2.1704" d="M930.4778,423.0457
				c0,0-27.857,0.8894-43.5099,34.8268c-15.7678,34.1844-56.256,51.1853-56.256,51.1853s37.0897-1.0706,52.8279-30.7401
				c18.4225-34.731,46.9365-55.272,46.9365-55.272H930.4778z M923.9169,475.1812c0,0-22.546-7.0578-37.3282,27.7509
				c-14.7148,34.65-51.6317,26.1628-51.6317,26.1628s48.6631,11.9273,57.5068-20.4732
				C900.5851,478.8701,923.9168,475.1812,923.9169,475.1812L923.9169,475.1812z M880.6487,419.9357
				c0,0-4.6508,25.8283-37.704,27.0821c-27.4489,1.0419-22.3913,61.8955-22.3913,61.8955s0.6316-46.4784,37.3666-54.7092
				C887.567,447.5612,880.6487,419.9357,880.6487,419.9357z"/>
		</g>
		<path id="path3028" fill="#A05A2C" stroke="#000000" stroke-width="1.8415" d="M119.8586,789.9406
			c16.4234,26.8243,15.9328-52.2872,13.4298-16.6266c-0.8317,11.8477-39.1064,60.9055-41.8952,115.1727
			c21.6621,14.0394,35.6385,33.271,37.1073,54.8315c0.1591,2.3372,0.1904,4.6606,0.046,6.9978
			c0.1945,1.7055,0.2762,3.4446,0.2762,5.2021c0,25.0652-20.3274,45.3926-45.3926,45.3926
			c-16.8712,0-31.5857-9.2192-39.4084-22.8804c-6.5979,16.9139-23.0131,28.9117-42.2635,28.9117
			c-18.7481,0-34.8813-11.3576-41.8024-27.577c-8.2632,11.2166-21.5531,18.5065-36.5533,18.5065
			c-25.0652,0-45.3926-20.3274-45.3926-45.3926c0-3.2829,0.3507-6.4908,1.0128-9.5759
			c-3.3495-39.3715,45.867-77.6619,103.3886-67.5173c-35.5678-22.4561-73.665-77.0961-70.8335-147.4685
			c2.993-74.3825,126.9099-86.8635,173.4708-66.5111c46.5609,20.3525,18.3886,101.7077,34.8105,128.532L119.8586,789.9406z"/>
		<path id="path3026" fill="#A05A2C" stroke="#000000" stroke-width="1.8415" d="M570.4259,789.9406
			c-16.4234,26.8243-15.9328-52.2872-13.4299-16.6266c0.8318,11.8477,39.1064,60.9055,41.8952,115.1727
			c-21.662,14.0394-35.6384,33.271-37.1072,54.8315c-0.1591,2.3372-0.1904,4.6606-0.046,6.9978
			c-0.1945,1.7055-0.2762,3.4446-0.2762,5.2021c0,25.0652,20.3274,45.3926,45.3926,45.3926
			c16.8713,0,31.5857-9.2192,39.4084-22.8804c6.5979,16.9139,23.013,28.9117,42.2635,28.9117
			c18.7481,0,34.8813-11.3576,41.8024-27.577c8.2632,11.2166,21.5531,18.5065,36.5533,18.5065
			c25.0652,0,45.3926-20.3274,45.3926-45.3926c0-3.2829-0.3508-6.4908-1.0128-9.5759
			c3.3495-39.3715-45.8669-77.6619-103.3886-67.5173c35.5677-22.4561,73.665-77.0961,70.8335-147.4685
			c-2.993-74.3825-126.9099-86.8635-173.4708-66.5111c-46.5608,20.3525-18.3886,101.7077-34.8105,128.532L570.4259,789.9406z"/>
		<path id="path3009" fill="#A05A2C" stroke="#000000" stroke-width="1.8415" d="M327.7731,358.7019
			c-162.569,1.4388-310.3764,371.942-305.8242,466.7726c4.5531,94.8351,67.4761,126.1424,101.4218,144.559
			c33.9457,18.4166,374.6821,14.6791,412.6762-0.4143c38.003-15.0931,102.8818-42.9486,105.1505-152.2418
			c2.2689-109.2976-151.6377-460.1137-313.4259-458.6699L327.7731,358.7019z"/>
		<path id="path3781" fill="#A05A2C" stroke="#000000" stroke-width="1.8415" d="M192.9741,656.0551
			c-13.85,22.1762-27.5623,53.1284-39.2699,87.4263c-22.7508,66.6511-37.9352,145.9246-31.9967,198.0145
			c-29.1018,18.6862-51.9911,41.3649-52.1149,71.8647c0,25.0652,20.3274,45.3927,45.3926,45.3927
			c15.0003,0,28.2901-7.2906,36.5533-18.5066c6.9212,16.2186,23.0543,27.577,41.8024,27.577
			c19.249,0,35.665-11.9974,42.2635-28.9117c7.8223,13.6616,22.5372,22.8805,39.4084,22.8805
			c25.0652,0,45.3926-20.3274,45.3926-45.3926c-0.326-29.5983-17.3795-53.6721-37.4284-67.0312
			c14.9885-50.7816,14.9192-129.4689,5.2944-197.0864c-5.038-35.3925-12.6847-67.7324-22.1439-91.4305"/>
		<path id="path3831" fill="#A05A2C" stroke="#000000" stroke-width="1.8415" d="M417.5948,657.4841
			c-9.4597,23.6995-17.1069,56.0396-22.1439,91.4305c-9.6255,67.619-9.6936,146.3062,5.2944,197.0864
			c-21.6621,14.0394-35.6385,33.2711-37.1072,54.8315c-0.1591,2.3373-0.1904,4.6606-0.046,6.9978
			c-0.1945,1.7056-0.2762,3.4446-0.2762,5.2021c0,25.0652,20.3274,45.3927,45.3926,45.3927
			c16.8712,0,31.5857-9.2192,39.4084-22.8805c6.5979,16.9139,23.0131,28.9117,42.2635,28.9117
			c18.7481,0,34.8813-11.3575,41.8024-27.577c8.2632,11.2167,21.5531,18.5065,36.5533,18.5065
			c25.0652,0,45.3926-20.3273,45.3926-45.3926c0-3.2829-0.3508-6.4908-1.0129-9.5759
			c-1.8792-25.4291-21.4661-48.0327-51.1027-62.2889c5.9385-52.0839-9.2453-131.3589-31.9967-198.0144
			c-11.7073-34.2979-25.4203-65.2501-39.27-87.4263"/>
		<path id="path3866" fill="#502D16" stroke="#28170B" stroke-width="1.8415" stroke-linecap="round" d="M565.1813,555.42
			c0,0,7.0183,49.6251-9.9893,61.6038c-17.0082,11.9792-61.3696-11.3431-61.3696-11.3431s3.0157,46.5668-24.996,57.1842
			c-28.0117,10.6174-56.6199-26.2482-56.6199-26.2482s-8.6599,45.8537-38.4317,49.1714
			c-29.7722,3.3178-48.314-39.5042-48.314-39.5042s-19.7911,42.2591-49.4528,38.0693
			c-29.6617-4.1904-36.9718-50.2793-36.9718-50.2793s-38.1385,32.5167-57.3669,24.5746
			c-19.2269-7.9412-23.3062-57.8942-23.3062-57.8942s-37.7024,27.4975-61.676,9.5362
			c-23.9736-17.9612-8.1763-61.8705-8.1763-61.8705s-49.086,10.1204-62.1092-6.1014c-13.0235-16.2216,7.4673-61.9604,7.4673-61.9604
			s-46.2854,5.9337-58.6412-21.3557C-37.1278,431.7128-2.1306,400.846-2.1306,400.846s-46.3075-5.7635-51.4873-35.2687
			c-5.1806-29.5055,36.3928-50.6991,36.3928-50.6991s-43.4185-17.0981-41.0997-46.9645
			c2.3197-29.8665,47.8588-40.0552,47.8588-40.0552s-37.8026-27.359-28.128-55.711c9.6743-28.3505,56.3165-26.895,56.3165-26.895
			S-12.088,109.3518,4.3322,84.2969s61.2355-12.045,61.2355-12.045S45.622,30.065,67.7573,9.882
			c22.1365-20.183,62.3066,3.5619,62.3066,3.5619s-8.8282-45.8213,17.6314-59.8669c26.4604-14.0446,59.4633,18.9455,59.4633,18.9455
			s2.8445-46.5771,31.9658-53.6014c29.121-7.0229,52.8839,33.1384,52.8839,33.1384s14.3385-44.407,44.2921-43.9666
			c29.9533,0.4398,42.981,45.2482,42.981,45.2482s24.9312-39.4467,53.8341-31.5709c28.9029,7.8749,30.3776,54.5162,30.3776,54.5162
			s33.9575-32.007,59.9936-17.1909c26.0361,14.8146,15.8665,60.3575,15.8665,60.3575s47.4301-16.1921,62.3847-1.731
			c14.9546,14.4617,0.3573,62.4082,0.3573,62.4082s45.1776-11.688,60.8555,13.8377c15.6779,25.5258-15.1741,60.5357-15.1741,60.5357
			s46.6639-0.0857,55.5018,28.5376c8.8377,28.623-29.7515,54.8609-29.7515,54.8609s45.2203,11.5218,46.661,41.4429
			c1.4418,29.9209-42.4609,45.7373-42.4609,45.7373s40.9332,22.4061,34.8886,51.7451c-6.0446,29.3405-52.5009,33.741-52.5009,33.741
			s34.0754,31.8818,20.924,58.7959c-13.1514,26.9156-59.2423,19.6247-59.2423,19.6247s25.077,39.3539,5.645,62.1534
			c-19.4321,22.7995-62.2624,4.2753-62.2624,4.2753L565.1813,555.42z"/>
		<path id="path3025" fill="#C87137" stroke="#28170B" stroke-width="5.6585" stroke-linecap="round" d="M199.6264,67.3339
			c0,50.506-40.9423,91.4468-91.4468,91.4468s-91.4468-40.9423-91.4468-91.4468s40.9423-91.4468,91.4468-91.4468
			S199.6264,16.8293,199.6264,67.3339L199.6264,67.3339z"/>
		<path id="path3795" fill="#C87137" stroke="#28170B" stroke-width="5.6585" stroke-linecap="round" d="M641.5901,67.3339
			c0,50.506-40.9423,91.4468-91.4468,91.4468s-91.4468-40.9423-91.4468-91.4468s40.9423-91.4468,91.4468-91.4468
			S641.5901,16.8293,641.5901,67.3339L641.5901,67.3339z"/>
		<path id="path3797" fill="#784421" stroke="#28170B" stroke-width="8.3318" stroke-linecap="round" d="M603.2872,76.2889
			c0,34.2997-27.8048,62.1035-62.1035,62.1035s-62.1035-27.8048-62.1035-62.1035s27.8047-62.1035,62.1035-62.1035
			C575.4825,14.1855,603.2872,41.9902,603.2872,76.2889z"/>
		<path id="path3799" fill="#784421" stroke="#28170B" stroke-width="8.3318" stroke-linecap="round" d="M176.0556,76.2889
			c0,34.2997-27.8048,62.1035-62.1035,62.1035S51.8487,110.5877,51.8487,76.289s27.8048-62.1035,62.1035-62.1035
			S176.0556,41.9902,176.0556,76.2889z"/>
		<path id="path3874" fill="#502D16" d="M540.0483,527.6941c0,0,6.2653,44.2995-8.9174,54.9935
			c-15.1829,10.6937-54.7844-10.126-54.7844-10.126s2.6921,41.5696-22.3133,51.0483
			c-25.0063,9.4783-50.5444-23.4315-50.5444-23.4315s-7.7305,40.9332-34.3082,43.8959
			c-26.5768,2.9617-43.1298-35.2657-43.1298-35.2657s-17.6682,37.7245-44.1463,33.9841
			c-26.4795-3.7408-33.0044-44.8843-33.0044-44.8843s-34.0459,29.0267-51.2103,21.9376s-20.8047-51.6818-20.8047-51.6818
			s-33.657,24.5482-55.0584,8.5132s-7.2989-55.2322-7.2989-55.2322s-43.8192,9.0345-55.4458-5.4467
			c-11.626-14.4813,6.666-55.3118,6.666-55.3118s-41.3192,5.2971-52.3491-19.0648c-11.0296-24.3611,20.2125-51.916,20.2125-51.916
			s-41.3383-5.145-45.9628-31.484c-4.6247-26.3396,32.4887-45.2586,32.4887-45.2586s-38.7602-15.2639-36.6889-41.9247
			c2.0707-26.6622,42.7232-35.7578,42.7232-35.7578s-33.7469-24.4229-25.1109-49.7327
			c8.6361-25.3083,50.2734-24.0089,50.2734-24.0089s-26.6121-32.0483-11.9534-54.4146
			c14.6589-22.3663,54.665-10.7525,54.665-10.7525s-17.8067-37.6597,1.9545-55.6786c19.7602-18.0174,55.6211,3.1798,55.6211,3.1798
			s-7.881-40.9052,15.7398-53.4423c23.62-12.5375,53.0828,16.9125,53.0828,16.9125s2.5392-41.5799,28.5361-47.8499
			c25.9963-6.2694,47.2091,29.5821,47.2091,29.5821s12.8-39.6427,39.5395-39.2493c26.7388,0.3926,38.3698,40.394,38.3698,40.394
			s22.2558-35.2127,48.0577-28.184c25.8018,7.03,27.1189,48.6661,27.1189,48.6661s30.3143-28.5715,53.5572-15.3465
			c23.2429,13.2256,14.1638,53.8813,14.1638,53.8813s42.3416-14.4553,55.6903-1.5454c13.3494,12.9099,0.319,55.711,0.319,55.711
			s40.3292-10.4339,54.3247,12.3529c13.996,22.7862-13.546,54.0404-13.546,54.0404s41.6566-0.0766,49.5471,25.4748
			c7.8894,25.5514-26.5591,48.974-26.5591,48.974s40.3675,10.2855,41.6551,36.9968c1.2871,26.7108-37.9042,40.8301-37.9042,40.8301
			s36.5416,20.0018,31.1451,46.1926c-5.3961,26.1922-46.8673,30.1213-46.8673,30.1213s30.4189,28.461,18.6789,52.4876
			c-11.7402,24.0266-52.8854,17.5194-52.8854,17.5194s22.3854,35.1317,5.0391,55.4841
			c-17.3471,20.3525-55.5814,3.8165-55.5814,3.8165L540.0483,527.6941z"/>
		<path id="path3023" fill="#A05A2C" stroke="#28170B" stroke-width="1.4732" stroke-linecap="round" d="M559.5956,287.0154
			c0,139.0284-103.4596,251.7267-231.0827,251.7267S97.4303,426.0399,97.4303,287.0155S200.8898,35.2888,328.513,35.2888
			S559.5956,147.991,559.5956,287.0154L559.5956,287.0154z"/>
		<path id="path3008" fill="#FFFFFF" stroke="#000000" stroke-width="2.7129" d="M266.0013,141.1821
			c-35.4868,0.0147-72.3672,45.1053-87.858,79.0806c-16.7902,36.8259-21.0861,94.5065,9.4792,121.0347
			c31.5341,27.3693,99.0986,24.8826,125.0728-7.8116c39.7974-50.0951,27.7155-165.3387-31.5975-189.3225
			c-4.9453-1.9999-10.027-2.9861-15.096-2.9841L266.0013,141.1821z M407.7494,141.1821c-5.0695-0.0015-10.1513,0.9843-15.096,2.9841
			c-59.313,23.9869-71.3948,139.2245-31.5975,189.3225c25.9742,32.695,93.5372,35.1818,125.0728,7.8116
			c30.5662-26.5281,26.2688-84.2088,9.4791-121.0347c-15.4908-33.9752-52.3712-79.0673-87.8579-79.0806L407.7494,141.1821z"/>
		<path id="path3856" fill="#D38D5F" stroke="#28170B" stroke-width="1.6945" stroke-linecap="round" d="M474.2754,470.2767
			c0,49.9448-61.7151,90.433-137.8484,90.433c-76.1288,0-137.8484-40.4882-137.8484-90.433s61.7151-90.4329,137.8484-90.4329
			C412.5557,379.8438,474.2754,420.3319,474.2754,470.2767L474.2754,470.2767z"/>
		<path id="path3906" fill="#550000" d="M397.6768,486.5874c-14.8891,31.9491-53.7427,43.918-86.7799,26.7325
			c-12.7328-6.6235-23.3024-17.0028-30.1714-29.6284l57.1311-28.2207L397.6768,486.5874z"/>
		<path id="path3862" fill="#F9F9F9" stroke="#28170B" stroke-width="1.9152" stroke-linecap="round" d="M285.4733,529.6387
			c-8.4916-1.1142-15.8031-25.9978-20.2073-40.9951c-3.8542-13.1237-10.472-36.6594-6.3463-49.4278
			c4.7141-14.5905,18.8319-15.1918,27.3385-15.5497c7.4445-0.3135,20.6485-0.3513,23.9542,13.3927
			c3.7772,15.7045-3.0289,41.1895-7.1318,56.5448c-3.5905,13.4372-10.1766,37.01-17.6075,36.0348L285.4733,529.6387z"/>
		<path id="path3864" fill="#F9F9F9" stroke="#28170B" stroke-width="1.9152" stroke-linecap="round" d="M398.7928,527.8856
			c-8.4916-1.1142-15.8031-25.9978-20.2073-40.9951c-3.8542-13.1237-10.472-36.6594-6.3463-49.4277
			c4.7141-14.5905,18.8319-15.1918,27.3385-15.5497c7.4445-0.3135,20.6486-0.3513,23.9542,13.3927
			c3.7772,15.7044-3.0289,41.1895-7.1318,56.5448c-3.5905,13.4372-10.1766,37.01-17.6075,36.0348L398.7928,527.8856z"/>
		<path id="path3904" fill="#D38D5F" stroke="#000000" stroke-width="1.4732" d="M333.3565,383.9675
			c-74.7493-1.451-182.2069-56.2708-232.0309-19.9959c-49.8329,36.2764-25.1124,132.3166,39.5617,155.8512
			c64.6725,23.5404,146.2414-65.007,197.5136-63.9905c51.2737,1.0172,156.5141,95.6999,223.8694,37.7319
			c63.8491-55.1394,48.2756-150.7243-57.6188-136.2177c-105.8945,14.5103-171.3051,26.6136-171.3051,26.6136L333.3565,383.9675z"/>
		<path id="path3854" fill="#D38D5F" stroke="#000000" stroke-width="2.9464" d="M194.0054,448.5237
			c-4.2303,59.1524,161.3904,93.9703,144.3866-32.7672c-19.8015,122.2737,138.5114,94.2826,141.4858,43.2417"/>
		<path id="path3823" fill="#502D16" stroke="#28170B" stroke-width="1.7877" stroke-linecap="round" d="M383.2174,364.213
			c10.6742,10.4725-0.272,21.7713-9.3757,32.9071c-10.1146,12.3723-18.1838,25.0547-38.9532,26.2122
			c-18.6936,1.0412-27.6286-11.0457-37.2781-21.9674c-10.721-12.1342-22.8598-23.222-13.9513-36.0144
			c8.0187-11.5139,27.9012-10.7256,46.6537-10.9397c20.8356-0.2378,41.0452-1.8334,52.9045,9.8024L383.2174,364.213z"/>
		<path id="path3013" stroke="#000000" stroke-width="2.9881" d="M296.3936,229.4717c-14.9914,0.0059-30.5913,19.0266-37.1353,33.38
			c-7.0932,15.5571-8.9006,39.9285,4.0125,51.1367c13.3226,11.5631,41.8716,10.5684,52.8441-3.244
			c16.8138-21.1642,11.6548-69.8583-13.4031-79.991c-2.0892-0.8449-4.1757-1.2813-6.3174-1.2806L296.3936,229.4717z
			 M374.9336,229.4717c-2.1418-0.0008-4.2281,0.4357-6.3174,1.2806c-25.0579,10.1336-30.2156,58.8283-13.4031,79.991
			c10.9731,13.8124,39.5219,14.8073,52.8441,3.244c12.913-11.2076,11.1055-35.5796,4.0125-51.1367
			c-6.5442-14.3537-22.1439-33.3741-37.1353-33.38L374.9336,229.4717z"/>
		<path id="path3871" fill="#502D16" d="M406.8993,16.5336c2.2708,13.0359-19.2755,22.0231-19.2755,22.0231
			s16.8889,14.5002,9.716,26.1819c-7.1725,11.6814-30.8152,8.1818-30.8152,8.1818s3.6415,20.1727-10.2348,26.0376
			c-13.8762,5.865-30.5853-8.7851-30.5853-8.7851s-10.9966,18.1411-26.2762,15.949c-15.2802-2.1915-18.6715-22.3958-18.6715-22.3958
			s-21.4338,9.1791-32.281-0.232c-10.8468-9.4112,0.373-27.4533,0.373-27.4533s-23.6848-3.2885-25.9551-16.3247
			c-2.2708-13.036,19.2755-22.0231,19.2755-22.0231s-16.8889-14.5002-9.716-26.1819c7.1725-11.6814,30.8152-8.1818,30.8152-8.1818
			s-3.6415-20.1727,10.2349-26.0375c13.8763-5.865,30.5853,8.7851,30.5853,8.7851s10.9966-18.1411,26.2762-15.949
			c15.2802,2.1916,18.6715,22.3958,18.6715,22.3958s21.4338-9.1791,32.281,0.232c10.8468,9.4112-0.373,27.4533-0.373,27.4533
			S404.629,3.4976,406.8993,16.5336L406.8993,16.5336z"/>
		<path id="path3876" fill="none" stroke="#000000" stroke-width="2.9464" d="M182.8826,392.2322
			c0,0-40.0861-29.6292-109.8015-36.6005c-69.7154-6.9716-111.5443,24.4008-111.5443,24.4008"/>
		<path id="path3886" fill="none" stroke="#000000" stroke-width="2.9464" d="M181.5715,449.3929
			c0,0-49.796-2.2706-111.5723,30.7813s-79.0334,82.4085-79.0334,82.4085"/>
		<path id="path3888" fill="none" stroke="#000000" stroke-width="2.9464" d="M183.9728,418.6322
			c0,0-46.4047-18.203-115.5381-6.8304C-0.6988,423.1736-32.946,464.3321-32.946,464.3321"/>
		<path id="path3890" fill="none" stroke="#000000" stroke-width="2.9464" d="M484.1545,392.2322
			c0,0,40.0861-29.6292,109.8015-36.6005c69.7154-6.9716,111.5444,24.4008,111.5444,24.4008"/>
		<path id="path3892" fill="none" stroke="#000000" stroke-width="2.9464" d="M485.4657,449.3929
			c0,0,49.7961-2.2706,111.5722,30.7813s79.0334,82.4085,79.0334,82.4085"/>
		<path id="path3894" fill="none" stroke="#000000" stroke-width="2.9464" d="M483.0644,418.6322
			c0,0,46.4047-18.203,115.5381-6.8304c69.1334,11.3719,101.3806,52.5304,101.3806,52.5304"/>
		<path id="path3896" stroke="#000000" stroke-width="1.4732" d="M292.2244,120.3509c0,0-15.6853-13.9429-33.1148-12.2001
			c-17.4281,1.7428-24.4008,22.658-24.4008,22.658s8.7143-15.6853,22.658-15.6853c13.9429,0,34.8577,5.2286,34.8577,5.2286
			L292.2244,120.3509z"/>
		<path id="path3898" stroke="#000000" stroke-width="1.4732" d="M376.1386,120.3509c0,0,15.6853-13.9429,33.1148-12.2001
			c17.4281,1.7428,24.4008,22.658,24.4008,22.658s-8.7143-15.6853-22.658-15.6853c-13.9429,0-34.8577,5.2286-34.8577,5.2286
			L376.1386,120.3509z"/>
		<path id="path3830" stroke="#000000" stroke-width="1.4732" stroke-linecap="round" d="M213.8058,443.2113
			c0,0.4813-0.3902,0.8714-0.8714,0.8714c-0.4813,0-0.8714-0.3901-0.8714-0.8714s0.3902-0.8714,0.8714-0.8714
			C213.4156,442.3398,213.8058,442.73,213.8058,443.2113z"/>
		<path id="path3834" stroke="#000000" stroke-width="1.4732" stroke-linecap="round" d="M420.9537,435.3811
			c0,0.4813-0.3901,0.8715-0.8714,0.8715s-0.8714-0.3902-0.8714-0.8715c0-0.4813,0.3901-0.8714,0.8714-0.8714
			S420.9537,434.8999,420.9537,435.3811z"/>
		<path id="path3836" stroke="#000000" stroke-width="1.4732" stroke-linecap="round" d="M453.88,400.5117
			c0,0.4813-0.3901,0.8714-0.8714,0.8714s-0.8714-0.3901-0.8714-0.8714s0.3901-0.8714,0.8714-0.8714
			S453.88,400.0304,453.88,400.5117z"/>
		<path id="path3838" stroke="#000000" stroke-width="1.4732" stroke-linecap="round" d="M427.7452,483.7335
			c0,0.4813-0.3901,0.8714-0.8714,0.8714s-0.8714-0.3902-0.8714-0.8714c0-0.4813,0.3901-0.8715,0.8714-0.8715
			S427.7452,483.2522,427.7452,483.7335z"/>
		<path id="path3842" stroke="#000000" stroke-width="1.4732" stroke-linecap="round" d="M252.7335,450.5199
			c0,0.4813-0.3902,0.8715-0.8714,0.8715c-0.4813,0-0.8714-0.3902-0.8714-0.8715c0-0.4813,0.3902-0.8714,0.8714-0.8714
			C252.3434,449.6484,252.7335,450.0386,252.7335,450.5199z"/>
		<path id="path3846" stroke="#000000" stroke-width="1.4732" stroke-linecap="round" d="M298.7714,476.7622
			c0,0.4813-0.3902,0.8714-0.8715,0.8714c-0.4813,0-0.8714-0.3901-0.8714-0.8714s0.3902-0.8714,0.8714-0.8714
			C298.3813,475.8908,298.7714,476.2809,298.7714,476.7622z"/>
		<path id="path3848" stroke="#000000" stroke-width="1.4732" stroke-linecap="round" d="M286.5703,411.4046
			c0,0.4813-0.3902,0.8715-0.8715,0.8715c-0.4813,0-0.8714-0.3902-0.8714-0.8715c0-0.4813,0.3902-0.8714,0.8714-0.8714
			C286.1801,410.5332,286.5703,410.9233,286.5703,411.4046z"/>
		<path id="path3850" stroke="#000000" stroke-width="1.4732" stroke-linecap="round" d="M368.4926,467.6121
			c0,0.4813-0.3901,0.8714-0.8714,0.8714s-0.8714-0.3901-0.8714-0.8714s0.3901-0.8714,0.8714-0.8714
			S368.4926,467.1308,368.4926,467.6121z"/>
		<path id="path3852" stroke="#000000" stroke-width="1.4732" stroke-linecap="round" d="M390.2667,405.304
			c0,0.4813-0.3901,0.8714-0.8714,0.8714s-0.8714-0.3901-0.8714-0.8714s0.3901-0.8714,0.8714-0.8714
			S390.2667,404.8228,390.2667,405.304z"/>
		<path id="path3855" stroke="#000000" stroke-width="1.4732" stroke-linecap="round" d="M228.1839,411.4046
			c0,0.4813-0.3902,0.8715-0.8714,0.8715c-0.4813,0-0.8714-0.3902-0.8714-0.8715c0-0.4813,0.3902-0.8714,0.8714-0.8714
			C227.7938,410.5332,228.1839,410.9233,228.1839,411.4046z"/>
	</g>
</g>
</svg>
